HIERARCHY
ROOT Hips
{
	OFFSET 0.000000 1.471914 24.280096
	CHANNELS 6 Xposition Yposition Zposition Xrotation Yrotation Zrotation
	JOINT Spine
	{
		OFFSET 0.000000 0.900110 1.860670
		CHANNELS 6 Xposition Yposition Zposition Xrotation Yrotation Zrotation
		JOINT Spine1
		{
			OFFSET 0.000000 0.400320 2.270309
			CHANNELS 6 Xposition Yposition Zposition Xrotation Yrotation Zrotation
			JOINT Spine2
			{
				OFFSET 0.000000 0.200920 2.296560
				CHANNELS 6 Xposition Yposition Zposition Xrotation Yrotation Zrotation
				JOINT Spine3
				{
					OFFSET 0.000000 0.000000 2.305330
					CHANNELS 6 Xposition Yposition Zposition Xrotation Yrotation Zrotation
					JOINT Neck
					{
						OFFSET 0.000000 -0.864490 6.051487
						CHANNELS 6 Xposition Yposition Zposition Xrotation Yrotation Zrotation
						JOINT Head
						{
							OFFSET 0.000000 -0.550429 3.121674
							CHANNELS 6 Xposition Yposition Zposition Xrotation Yrotation Zrotation
							End Site
							{
								OFFSET 0.000000 0.000000 3.731750
							}
						}
					}
					JOINT RightShoulder
					{
						OFFSET -0.788280 -1.313800 4.256718
						CHANNELS 6 Xposition Yposition Zposition Xrotation Yrotation Zrotation
						JOINT RightArm
						{
							OFFSET -3.915130 0.000000 0.000000
							CHANNELS 6 Xposition Yposition Zposition Xrotation Yrotation Zrotation
							JOINT RightForeArm
							{
								OFFSET -6.914910 0.000000 0.000000
								CHANNELS 6 Xposition Yposition Zposition Xrotation Yrotation Zrotation
								JOINT RightHand
								{
									OFFSET -6.096219 0.000000 0.000000
									CHANNELS 6 Xposition Yposition Zposition Xrotation Yrotation Zrotation
									JOINT RightHandEnd
									{
										OFFSET -1.749950 0.000000 0.000000
										CHANNELS 6 Xposition Yposition Zposition Xrotation Yrotation Zrotation
										End Site
										{
											OFFSET -1.749950 0.000000 0.000000
										}
									}
									JOINT RightHandThumb1
									{
										OFFSET -0.699980 -1.166630 -0.466648
										CHANNELS 6 Xposition Yposition Zposition Xrotation Yrotation Zrotation
										End Site
										{
											OFFSET -1.690319 -0.452920 0.000000
										}
									}
								}
							}
						}
					}
					JOINT LeftShoulder
					{
						OFFSET 0.788280 -1.313800 4.256718
						CHANNELS 6 Xposition Yposition Zposition Xrotation Yrotation Zrotation
						JOINT LeftArm
						{
							OFFSET 3.915130 0.000000 0.000000
							CHANNELS 6 Xposition Yposition Zposition Xrotation Yrotation Zrotation
							JOINT LeftForeArm
							{
								OFFSET 6.914910 0.000000 0.000000
								CHANNELS 6 Xposition Yposition Zposition Xrotation Yrotation Zrotation
								JOINT LeftHand
								{
									OFFSET 6.096219 0.000000 0.000000
									CHANNELS 6 Xposition Yposition Zposition Xrotation Yrotation Zrotation
									JOINT LeftHandEnd
									{
										OFFSET 1.749950 0.000000 0.000000
										CHANNELS 6 Xposition Yposition Zposition Xrotation Yrotation Zrotation
										End Site
										{
											OFFSET 1.749950 0.000000 0.000000
										}
									}
									JOINT LeftHandThumb1
									{
										OFFSET 0.699980 -1.166630 -0.466648
										CHANNELS 6 Xposition Yposition Zposition Xrotation Yrotation Zrotation
										End Site
										{
											OFFSET 1.690319 -0.452920 0.000000
										}
									}
								}
							}
						}
					}
				}
			}
		}
	}
	JOINT RightUpLeg
	{
		OFFSET -2.338570 -0.252550 -0.551512
		CHANNELS 6 Xposition Yposition Zposition Xrotation Yrotation Zrotation
		JOINT RightLeg
		{
			OFFSET 0.000000 0.000000 -10.744959
			CHANNELS 6 Xposition Yposition Zposition Xrotation Yrotation Zrotation
			JOINT RightFoot
			{
				OFFSET 0.000000 -0.000001 -10.930849
				CHANNELS 6 Xposition Yposition Zposition Xrotation Yrotation Zrotation
				JOINT RightToeBase
				{
					OFFSET 0.000000 -4.087269 -1.487650
					CHANNELS 6 Xposition Yposition Zposition Xrotation Yrotation Zrotation
					End Site
					{
						OFFSET 0.000000 -1.891870 0.000000
					}
				}
			}
		}
	}
	JOINT LeftUpLeg
	{
		OFFSET 2.338570 -0.252550 -0.551512
		CHANNELS 6 Xposition Yposition Zposition Xrotation Yrotation Zrotation
		JOINT LeftLeg
		{
			OFFSET 0.000000 0.000000 -10.744959
			CHANNELS 6 Xposition Yposition Zposition Xrotation Yrotation Zrotation
			JOINT LeftFoot
			{
				OFFSET 0.000000 -0.000001 -10.930849
				CHANNELS 6 Xposition Yposition Zposition Xrotation Yrotation Zrotation
				JOINT LeftToeBase
				{
					OFFSET 0.000000 -4.087269 -1.487650
					CHANNELS 6 Xposition Yposition Zposition Xrotation Yrotation Zrotation
					End Site
					{
						OFFSET 0.000000 -1.891870 0.000000
					}
				}
			}
		}
	}
}
MOTION
Frames: 4
Frame Time: 0.041667
0.000029 27.011684 33.163952 -0.231225 -7.086898 71.787863 -0.000009 0.900090 1.860671 13.885736 -4.509109 0.811270 0.000000 0.400279 2.270313 0.000007 -0.000001 0.000009 0.000017 0.200880 2.296560 -0.000000 -0.000001 0.000002 0.000021 0.000031 2.305321 0.000048 0.000003 3.558348 -0.000022 -0.864434 6.051373 -11.094516 4.916982 -178.691341 0.000052 -0.550416 3.121650 -0.000007 -0.000002 -0.000005 -0.788274 -1.313733 4.256837 174.652800 61.850853 -20.469367 -3.915121 -0.000030 -0.000015 -0.000003 -0.000006 0.000004 -6.914864 -0.000002 0.000019 -0.000000 0.000001 -85.680051 -6.096193 0.000021 0.000033 0.000067 0.000184 0.000069 -1.749895 -0.000023 0.000019 -0.000001 -0.000003 0.000001 -0.699960 -1.166596 -0.466642 -0.000021 -0.000009 -0.000027 0.788259 -1.313755 4.256764 -138.785510 -69.229288 57.432096 3.915250 0.000004 -0.000042 0.000002 0.000001 -0.000000 6.914936 -0.000068 -0.000003 0.000011 -0.000005 45.451685 6.096268 0.000186 -0.000041 0.000129 -0.000194 -0.000108 1.749983 0.000015 0.000074 -0.000008 -0.000009 -0.000004 0.699988 -1.166601 -0.466641 0.000039 -0.000008 -0.000041 -2.338595 -0.252546 -0.551454 -63.673339 -6.290639 -3.053088 0.000010 -0.000018 -10.744952 104.604340 -13.942429 -4.739216 -0.000023 0.000072 -10.930852 0.000048 -0.000004 0.000004 -0.000027 -4.087228 -1.487625 0.000001 0.000001 0.000006 2.338584 -0.252545 -0.551496 -55.245367 2.650423 -2.775557 -0.000020 -0.000004 -10.744931 95.659504 -0.090494 4.545597 0.000004 0.000009 -10.930865 0.000009 0.000001 0.000002 -0.000038 -4.087198 -1.487650 -0.000000 0.000001 -0.000003 
0.000029 27.011684 33.163960 -0.290035 -6.980019 71.778041 -0.000014 0.900091 1.860668 13.857146 -4.472673 0.834191 0.000001 0.400280 2.270319 0.000006 -0.000000 0.000010 0.000014 0.200880 2.296560 0.000001 -0.000001 0.000005 0.000014 0.000029 2.305321 0.000049 -0.000001 3.515697 -0.000026 -0.864433 6.051379 -11.192329 4.777581 -178.610294 0.000051 -0.550413 3.121654 -0.000008 -0.000002 -0.000007 -0.788274 -1.313731 4.256839 174.791890 61.903869 -20.623802 -3.915123 -0.000029 -0.000016 -0.000003 -0.000007 0.000000 -6.914865 -0.000005 0.000018 0.000003 -0.000001 -85.782771 -6.096195 0.000020 0.000038 0.000072 0.000184 0.000069 -1.749893 -0.000020 0.000023 0.000000 -0.000002 -0.000002 -0.699962 -1.166589 -0.466639 -0.000021 -0.000009 -0.000031 0.788259 -1.313754 4.256770 -139.192534 -69.610228 57.129925 3.915251 0.000004 -0.000031 -0.000001 -0.000000 0.000001 6.914933 -0.000065 -0.000006 0.000011 -0.000008 44.884520 6.096266 0.000181 -0.000042 0.000134 -0.000196 -0.000108 1.749987 0.000012 0.000086 -0.000010 -0.000009 0.000000 0.699991 -1.166602 -0.466629 0.000035 -0.000008 -0.000037 -2.338599 -0.252547 -0.551453 -63.710051 -6.421787 -3.146992 0.000010 -0.000015 -10.744955 104.747726 -13.847933 -4.819730 -0.000025 0.000074 -10.930850 0.000046 -0.000007 -0.000002 -0.000028 -4.087232 -1.487627 0.000001 0.000003 0.000000 2.338581 -0.252542 -0.551499 -55.395351 2.497738 -2.865043 -0.000020 -0.000004 -10.744925 95.477596 0.011034 4.445722 0.000001 0.000008 -10.930870 0.000010 0.000001 0.000000 -0.000039 -4.087200 -1.487651 0.000005 0.000002 -0.000004 
0.000029 27.011684 33.163960 -0.293295 -6.905791 71.534381 -0.000012 0.900096 1.860670 13.778028 -4.308100 0.837156 0.000000 0.400278 2.270315 0.000006 0.000000 0.000013 0.000015 0.200879 2.296556 0.000001 -0.000002 0.000003 0.000020 0.000031 2.305313 0.000048 0.000003 3.540329 -0.000028 -0.864434 6.051370 -11.233506 4.627726 -178.814598 0.000054 -0.550415 3.121650 -0.000008 -0.000002 -0.000005 -0.788278 -1.313730 4.256845 174.653019 62.146839 -20.540617 -3.915127 -0.000027 -0.000012 -0.000003 -0.000002 0.000002 -6.914862 -0.000003 0.000019 0.000000 -0.000002 -86.089145 -6.096195 0.000022 0.000034 0.000070 0.000184 0.000071 -1.749895 -0.000015 0.000019 0.000000 0.000003 -0.000000 -0.699961 -1.166591 -0.466651 -0.000023 -0.000006 -0.000029 0.788252 -1.313754 4.256776 -139.838069 -70.057954 56.434790 3.915244 0.000004 -0.000038 0.000004 0.000002 0.000002 6.914930 -0.000065 -0.000001 0.000012 -0.000009 44.133223 6.096269 0.000180 -0.000042 0.000130 -0.000190 -0.000102 1.749989 0.000015 0.000089 -0.000009 -0.000012 -0.000006 0.699993 -1.166599 -0.466629 0.000040 -0.000009 -0.000035 -2.338598 -0.252542 -0.551454 -63.821499 -6.487841 -3.179392 0.000010 -0.000013 -10.744950 104.737427 -13.896137 -4.877616 -0.000022 0.000071 -10.930850 0.000050 -0.000008 -0.000001 -0.000030 -4.087231 -1.487627 0.000006 0.000002 0.000004 2.338582 -0.252538 -0.551502 -55.499286 2.435314 -2.895061 -0.000016 -0.000004 -10.744929 95.758248 0.169312 4.394377 0.000000 0.000008 -10.930865 0.000005 0.000001 0.000003 -0.000039 -4.087199 -1.487650 0.000003 0.000002 -0.000003 
0.000028 27.011686 33.163956 -0.284010 -6.872733 71.423923 -0.000008 0.900094 1.860664 13.841156 -4.063945 0.843913 0.000001 0.400281 2.270319 0.000005 0.000000 0.000010 0.000014 0.200880 2.296555 0.000000 -0.000001 0.000001 0.000018 0.000031 2.305317 0.000047 0.000001 3.651591 -0.000025 -0.864433 6.051377 -11.361585 4.535886 -178.843572 0.000049 -0.550415 3.121662 -0.000008 -0.000002 -0.000006 -0.788276 -1.313730 4.256842 174.980021 62.084487 -21.069067 -3.915121 -0.000030 -0.000019 -0.000003 -0.000004 0.000001 -6.914865 -0.000007 0.000015 0.000000 0.000002 -86.451958 -6.096197 0.000030 0.000037 0.000067 0.000184 0.000068 -1.749898 -0.000018 0.000019 -0.000000 -0.000001 -0.000001 -0.699962 -1.166590 -0.466646 -0.000024 -0.000009 -0.000030 0.788252 -1.313753 4.256778 -140.448142 -70.143420 55.999710 3.915245 0.000005 -0.000034 0.000000 0.000001 0.000000 6.914927 -0.000066 -0.000005 0.000011 -0.000009 44.063999 6.096268 0.000181 -0.000034 0.000128 -0.000194 -0.000110 1.749981 0.000012 0.000078 -0.000007 -0.000012 -0.000004 0.699986 -1.166604 -0.466637 0.000037 -0.000009 -0.000043 -2.338596 -0.252545 -0.551453 -63.920346 -6.412027 -3.193154 0.000010 -0.000013 -10.744953 104.763661 -13.874961 -4.801760 -0.000023 0.000075 -10.930848 0.000044 -0.000002 -0.000001 -0.000025 -4.087230 -1.487624 0.000006 0.000002 0.000001 2.338585 -0.252540 -0.551497 -55.752580 2.397640 -2.914312 -0.000018 -0.000004 -10.744930 95.885092 0.405211 4.350232 0.000003 0.000009 -10.930869 0.000005 0.000003 0.000003 -0.000040 -4.087200 -1.487648 0.000001 0.000000 -0.000004 
